#!OML:ASF E:\VariousWalksJay\Project 1\Capture day 1\Session 1\Actor2.ASF
:FULLY-SPECIFIED
:DEGREES
1123
root -16.8742 16.9431 45.6599 12.1832 -49.9391 -7.58785
lowerback -1.45434 -3.76734 5.08295
upperback 4.83201 -5.24242 -1.24983
thorax 5.27041 -2.36789 -4.42977
lowerneck -8.25493 -1.47712 -0.890857
upperneck 6.77571 -2.714 8.94807
head 3.51246 -0.981092 2.71917
rclavicle -2.68359e-014 -4.77083e-015
rhumerus -48.4646 17.7582 -90.2681
rradius 54.687
rwrist 7.4402
rhand -38.1923 12.2335
rfingers 7.12502
rthumb -11.2248 -17.4462
lclavicle -2.68359e-014 -4.77083e-015
lhumerus -11.1916 -42.9008 91.0214
lradius 63.8904
lwrist 38.0092
lhand -29.9105 2.38114
lfingers 7.12502
lthumb -3.23102 32.3364
rfemur -23.7194 -0.468442 25.9007
rtibia 33.4685
rfoot -16.0903 6.33191
rtoes 1.68379
lfemur -12.4794 5.67171 -19.638
ltibia 26.211
lfoot -19.8102 0.920318
ltoes -10.2856
1124
root -16.8972 16.9408 45.6825 12.0565 -50.0032 -7.62722
lowerback -1.75236 -3.75723 5.15866
upperback 4.69665 -5.24519 -1.19602
thorax 5.29592 -2.36731 -4.43296
lowerneck -8.28067 -1.53578 -0.973626
upperneck 7.07528 -2.8065 8.9366
head 3.61261 -1.0199 2.72446
rclavicle 1.66383e-013 -3.33958e-014
rhumerus -48.5586 17.7754 -90.1538
rradius 54.5729
rwrist 7.53073
rhand -38.1261 12.2456
rfingers 7.12502
rthumb -11.1609 -17.4375
lclavicle 1.66383e-013 -3.33958e-014
lhumerus -11.5078 -42.8878 91.2815
lradius 63.8208
lwrist 38.0698
lhand -29.9112 2.41714
lfingers 7.12502
lthumb -3.23168 32.3724
rfemur -23.4285 -0.575919 25.9195
rtibia 33.4729
rfoot -16.1861 6.46439
rtoes 1.91025
lfemur -12.1202 5.62759 -19.607
ltibia 26.1308
lfoot -19.915 1.03645
ltoes -10.2669
1125
root -16.9197 16.9384 45.7045 11.9312 -50.0675 -7.65973
lowerback -2.04809 -3.74769 5.2282
upperback 4.56814 -5.24907 -1.1439
thorax 5.32765 -2.36726 -4.43477
lowerneck -8.30534 -1.59133 -1.0482
upperneck 7.35502 -2.89328 8.91637
head 3.70621 -1.05687 2.72593
rclavicle -1.13506e-013 2.14687e-014
rhumerus -48.6398 17.785 -90.037
rradius 54.4487
rwrist 7.62482
rhand -38.0641 12.2582
rfingers 7.12502
rthumb -11.1011 -17.4282
lclavicle -1.13506e-013 2.14687e-014
lhumerus -11.816 -42.8709 91.538
lradius 63.7515
lwrist 38.1167
lhand -29.914 2.45606
lfingers 7.12502
lthumb -3.23441 32.4113
rfemur -23.1509 -0.67764 25.932
rtibia 33.4819
rfoot -16.283 6.59467
rtoes 2.1669
lfemur -11.7724 5.58673 -19.5825
ltibia 26.0503
lfoot -20.0155 1.14989
ltoes -10.2597
1126
root -16.9416 16.9359 45.7259 11.8075 -50.1319 -7.68378
lowerback -2.34183 -3.74034 5.28853
upperback 4.44559 -5.25599 -1.09287
thorax 5.36489 -2.36887 -4.43295
lowerneck -8.3294 -1.64218 -1.11177
upperneck 7.61651 -2.97231 8.8844
head 3.79358 -1.09098 2.72233
rclavicle -1.11121e-013 -2.38542e-015
rhumerus -48.7045 17.7866 -89.9172
rradius 54.3079
rwrist 7.7258
rhand -38.0053 12.277
rfingers 7.12502
rthumb -11.0444 -17.4124
lclavicle -1.11121e-013 -2.38542e-015
lhumerus -12.1176 -42.8433 91.7914
lradius 63.6827
lwrist 38.1539
lhand -29.9166 2.49845
lfingers 7.12502
lthumb -3.23689 32.4536
rfemur -22.8881 -0.772092 25.9375
rtibia 33.4963
rfoot -16.382 6.72013
rtoes 2.43942
lfemur -11.4369 5.54905 -19.5659
ltibia 25.9678
lfoot -20.1108 1.26103
ltoes -10.2645
1127
root -16.963 16.9334 45.7467 11.6847 -50.1957 -7.69809
lowerback -2.63331 -3.73589 5.33838
upperback 4.32828 -5.26672 -1.04253
thorax 5.40678 -2.3726 -4.42639
lowerneck -8.35285 -1.68793 -1.16449
upperneck 7.86108 -3.04306 8.84063
head 3.87506 -1.12191 2.71371
rclavicle 5.1684e-015 3.10104e-014
rhumerus -48.7489 17.7757 -89.7914
rradius 54.1426
rwrist 7.83983
rhand -37.9489 12.3055
rfingers 7.12502
rthumb -10.99 -17.3868
lclavicle 5.1684e-015 3.10104e-014
lhumerus -12.4135 -42.8016 92.0427
lradius 63.6147
lwrist 38.1857
lhand -29.9168 2.54331
lfingers 7.12502
lthumb -3.23716 32.4985
rfemur -22.6405 -0.85789 25.9353
rtibia 33.5165
rfoot -16.4835 6.83761
rtoes 2.71193
lfemur -11.1137 5.51323 -19.5582
ltibia 25.8824
lfoot -20.2004 1.37098
ltoes -10.2797
1128
root -16.9837 16.9309 45.7669 11.5631 -50.258 -7.7028
lowerback -2.92192 -3.73446 5.37749
upperback 4.21562 -5.28132 -0.991965
thorax 5.45244 -2.37854 -4.41395
lowerneck -8.37702 -1.72903 -1.20753
upperneck 8.09108 -3.10613 8.785
head 3.95159 -1.14988 2.70021
rclavicle -3.4191e-014 -1.59028e-015
rhumerus -48.7683 17.7449 -89.6547
rradius 53.9442
rwrist 7.97459
rhand -37.8935 12.3496
rfingers 7.12502
rthumb -10.9365 -17.3455
lclavicle -3.4191e-014 -1.59028e-015
lhumerus -12.7043 -42.745 92.2935
lradius 63.5479
lwrist 38.2164
lhand -29.9134 2.58992
lfingers 7.12502
lthumb -3.23387 32.5451
rfemur -22.4081 -0.933536 25.9259
rtibia 33.5423
rfoot -16.5873 6.94443
rtoes 2.97004
lfemur -10.8033 5.47855 -19.5591
ltibia 25.7942
lfoot -20.2841 1.47939
ltoes -10.3028
1129
root -17.0039 16.9284 45.7865 11.4432 -50.317 -7.70007
lowerback -3.20617 -3.73555 5.408
upperback 4.10754 -5.29909 -0.940464
thorax 5.50091 -2.38629 -4.39595
lowerneck -8.40351 -1.76702 -1.24338
upperneck 8.30888 -3.16365 8.71951
head 4.02431 -1.17581 2.68273
rclavicle 5.24792e-014 7.95139e-016
rhumerus -48.7594 17.6858 -89.5023
rradius 53.7064
rwrist 8.13747
rhand -37.8396 12.4162
rfingers 7.12502
rthumb -10.8846 -17.2817
lclavicle 5.24792e-014 7.95139e-016
lhumerus -12.9899 -42.6752 92.5452
lradius 63.4827
lwrist 38.2484
lhand -29.9058 2.63685
lfingers 7.12502
lthumb -3.22649 32.5922
rfemur -22.1892 -0.997921 25.911
rtibia 33.573
rfoot -16.6924 7.03787
rtoes 3.20322
lfemur -10.5048 5.44448 -19.5664
ltibia 25.7037
lfoot -20.3622 1.58533
ltoes -10.3309
1130
root -17.0234 16.9258 45.8054 11.3251 -50.3713 -7.69098
lowerback -3.48503 -3.73841 5.43156
upperback 4.0042 -5.31904 -0.887755
thorax 5.55179 -2.3953 -4.3729
lowerneck -8.43325 -1.80341 -1.27537
upperneck 8.51567 -3.21763 8.64717
head 4.09393 -1.20059 2.66263
rclavicle -1.53064e-014 5.56597e-015
rhumerus -48.7213 17.5928 -89.3313
rradius 53.428
rwrist 8.33165
rhand -37.787 12.508
rfingers 7.12502
rthumb -10.8338 -17.1926
lclavicle -1.53064e-014 5.56597e-015
lhumerus -13.2694 -42.5964 92.7982
lradius 63.4193
lwrist 38.2837
lhand -29.8949 2.68267
lfingers 7.12502
lthumb -3.21594 32.6382
rfemur -21.9827 -1.05023 25.8919
rtibia 33.6081
rfoot -16.7979 7.11513
rtoes 3.40314
lfemur -10.2179 5.41045 -19.5787
ltibia 25.6117
lfoot -20.4355 1.6877
ltoes -10.36
1131
root -17.0423 16.9233 45.8236 11.2098 -50.4197 -7.67788
lowerback -3.75678 -3.74109 5.45113
upperback 3.90523 -5.33857 -0.83346
thorax 5.60378 -2.40422 -4.34573
lowerneck -8.4667 -1.84082 -1.30835
upperneck 8.71248 -3.2715 8.57198
head 4.16114 -1.2258 2.64169
rclavicle 1.17482e-013 -2.94201e-014
rhumerus -48.658 17.4622 -89.1399
rradius 53.1143
rwrist 8.55471
rhand -37.7355 12.6215
rfingers 7.12502
rthumb -10.7842 -17.0817
lclavicle 1.17482e-013 -2.94201e-014
lhumerus -13.543 -42.516 93.0554
lradius 63.3571
lwrist 38.3213
lhand -29.8825 2.72604
lfingers 7.12502
lthumb -3.20394 32.6817
rfemur -21.7879 -1.08967 25.8705
rtibia 33.6467
rfoot -16.9022 7.1749
rtoes 3.57278
lfemur -9.94234 5.37757 -19.5933
ltibia 25.5192
lfoot -20.5043 1.7837
ltoes -10.3839
1132
root -17.0605 16.9208 45.8409 11.0976 -50.461 -7.66164
lowerback -4.01881 -3.74213 5.46855
upperback 3.80937 -5.35563 -0.77781
thorax 5.65412 -2.41208 -4.31527
lowerneck -8.5034 -1.88098 -1.34597
upperneck 8.90051 -3.32762 8.49773
head 4.22647 -1.25251 2.62156
rclavicle 7.87187e-014 -3.97569e-015
rhumerus -48.5788 17.2971 -88.9309
rradius 52.7772
rwrist 8.79768
rhand -37.6869 12.7494
rfingers 7.12502
rthumb -10.7373 -16.9562
lclavicle 7.87187e-014 -3.97569e-015
lhumerus -13.8122 -42.4406 93.3195
lradius 63.2957
lwrist 38.3596
lhand -29.8698 2.76666
lfingers 7.12502
lthumb -3.19171 32.7225
rfemur -21.6044 -1.11546 25.848
rtibia 33.6885
rfoot -17.0042 7.21492
rtoes 3.71087
lfemur -9.67799 5.34695 -19.6088
ltibia 25.4269
lfoot -20.5695 1.87035
ltoes -10.3976
